:FULLY-SPECIFIED
:FORCE-ALL-JOINTS-BE-3DOF
:DEGREES
645
root 5.6358 16.5233 -3.18243 15.853 13.8272 -1.01464
lfemur -14.0898 20.7406 -27.5422
ltibia 28.4034 0 0
lfoot -41.7271 13.6836 0
ltoes 26.3727 0 0
rfemur -59.0924 -28.1436 30.6959
rtibia 66.3814 0 0
rfoot -1.54598 -4.07278 0
rtoes 0.843279 0 0
lowerback -1.09606 -3.42439 -5.50678
upperback -2.22633 -4.56014 0.405989
thorax -1.18075 -2.20098 3.46684
lowerneck -9.97702 -7.67104 -0.0771793
upperneck 6.78952 -10.8279 6.66592
head 4.22454 -5.03917 1.462
lclavicle -4.84455e-14 -1.75814e-14 0
lhumerus -45.4192 -67.8697 127.872
lradius 71.5137 0 0
lwrist 23.2668 0 0
lhand -5.45506 2.70673 0
lfingers 7.12502 0 0
lthumb 20.3561 31.6603 0
rclavicle -4.84455e-14 -1.75814e-14 0
rhumerus -30.0433 -0.319659 -75.2203
rradius 69.3303 0 0
rwrist -23.9306 0 0
rhand -30.1442 -42.7102 0
rfingers 7.12502 0 0
rthumb -3.45669 -792.664 0
646
root 5.62082 16.4933 -3.12598 16.091 13.2123 -0.842675
lfemur -14.3941 21.2832 -27.8794
ltibia 28.8661 0 0
lfoot -41.8237 13.8541 0
ltoes 25.8293 0 0
rfemur -59.94 -28.688 31.6653
rtibia 66.6198 0 0
rfoot -2.21504 -3.82983 0
rtoes 1.16269 0 0
lowerback -0.992404 -3.46487 -5.6707
upperback -2.14806 -4.62004 0.255135
thorax -1.15322 -2.23171 3.4059
lowerneck -9.91596 -7.68356 -0.174078
upperneck 6.2998 -10.8234 6.86559
head 4.09284 -5.04478 1.55673
lclavicle -4.73439e-14 -1.60303e-14 0
lhumerus -46.0036 -68.2586 128.472
lradius 71.4268 0 0
lwrist 23.4505 0 0
lhand -5.25484 2.93441 0
lfingers 7.12502 0 0
lthumb 20.5487 31.8693 0
rclavicle -4.73439e-14 -1.60303e-14 0
rhumerus -31.3851 -0.95682 -75.938
rradius 68.0603 0 0
rwrist -22.8358 0 0
rhand -30.0525 -43.4457 0
rfingers 7.12502 0 0
rthumb -3.36817 -793.401 0
647
root 5.60535 16.4613 -3.05596 16.3317 12.4726 -0.66656
lfemur -14.7487 21.8377 -28.1783
ltibia 29.544 0 0
lfoot -41.7115 13.9331 0
ltoes 25.191 0 0
rfemur -60.7008 -29.1655 32.5953
rtibia 66.8549 0 0
rfoot -2.96564 -3.62561 0
rtoes 1.47848 0 0
lowerback -0.893631 -3.51816 -5.80585
upperback -2.07278 -4.69678 0.112823
thorax -1.12734 -2.27115 3.33759
lowerneck -9.85907 -7.6796 -0.265058
upperneck 5.80136 -10.7956 7.03961
head 3.95661 -5.03985 1.6436
lclavicle -4.6042e-14 -1.44977e-14 0
lhumerus -46.3872 -68.6557 128.861
lradius 71.4169 0 0
lwrist 23.6498 0 0
lhand -5.09003 3.14114 0
lfingers 7.12502 0 0
lthumb 20.7072 32.0604 0
rclavicle -4.6042e-14 -1.44977e-14 0
rhumerus -32.7929 -1.6293 -76.5161
rradius 66.8049 0 0
rwrist -21.7517 0 0
rhand -29.9533 -44.1872 0
rfingers 7.12502 0 0
rthumb -3.27236 -794.143 0
648
root 5.58943 16.4275 -2.97056 16.5808 11.577 -0.48365
lfemur -15.1574 22.4007 -28.4337
ltibia 30.4593 0 0
lfoot -41.3647 13.902 0
ltoes 24.4517 0 0
rfemur -61.3602 -29.5679 33.4758
rtibia 67.0866 0 0
rfoot -3.80931 -3.48171 0
rtoes 1.79023 0 0
lowerback -0.803115 -3.58587 -5.90743
upperback -2.00243 -4.79236 -0.0191347
thorax -1.10341 -2.3203 3.26095
lowerneck -9.80805 -7.65595 -0.34847
upperneck 5.29243 -10.7402 7.18406
head 3.81513 -5.02233 1.72136
lclavicle -4.45808e-14 -1.30076e-14 0
lhumerus -46.5485 -69.071 129.02
lradius 71.502 0 0
lwrist 23.8669 0 0
lhand -4.96457 3.32363 0
lfingers 7.12502 0 0
lthumb 20.8278 32.2307 0
rclavicle -4.45808e-14 -1.30076e-14 0
rhumerus -34.2905 -2.34002 -76.9322
rradius 65.5523 0 0
rwrist -20.6713 0 0
rhand -29.8474 -44.9401 0
rfingers 7.12502 0 0
rthumb -3.17014 -794.897 0
